<svg width="142" height="85" viewBox="0 0 142 85" fill="none" xmlns="http://www.w3.org/2000/svg">
<g clip-path="url(#clip0_888_19399)">
<rect width="141.667" height="84.9999" rx="3.76583" fill="#F3F7F8"/>
<path d="M44.2931 48.3267L77.9933 85.0434H10.5929L44.2931 48.3267Z" fill="#DDE1E2"/>
<path d="M82.8935 37.6577L126.106 84.7304H39.6812L82.8935 37.6577Z" fill="#E4EAEA"/>
<ellipse cx="105.444" cy="18.2012" rx="9.41458" ry="9.41455" fill="#DDE1E2"/>
<path fill-rule="evenodd" clip-rule="evenodd" d="M68.1432 29.2905C61.5441 29.2905 56.1882 34.6464 56.1882 41.2455C56.1882 47.8447 61.5441 53.2005 68.1432 53.2005C74.7424 53.2005 80.0982 47.8447 80.0982 41.2455C80.0982 34.6464 74.7424 29.2905 68.1432 29.2905ZM72.9251 42.4411H69.3386V46.0276C69.3386 46.6851 68.8007 47.2231 68.1431 47.2231C67.4856 47.2231 66.9476 46.6851 66.9476 46.0276V42.4411H63.3611C62.7036 42.4411 62.1656 41.9031 62.1656 41.2456C62.1656 40.5881 62.7036 40.0501 63.3611 40.0501H66.9476V36.4636C66.9476 35.8061 67.4856 35.2681 68.1431 35.2681C68.8007 35.2681 69.3386 35.8061 69.3386 36.4636V40.0501H72.9251C73.5827 40.0501 74.1206 40.5881 74.1206 41.2456C74.1206 41.9031 73.5827 42.4411 72.9251 42.4411Z" fill="#3699FF"/>
</g>
<defs>
<clipPath id="clip0_888_19399">
<rect width="141.667" height="84.9999" rx="3.76583" fill="white"/>
</clipPath>
</defs>
</svg>
