<svg width="25" height="24" viewBox="0 0 25 24" fill="none" xmlns="http://www.w3.org/2000/svg">
<path d="M19.4081 9.27346H12.863V8.0099C13.9175 7.56447 14.5266 6.92815 14.6902 6.09183C15.0447 4.24648 12.9176 2.34659 12.6721 2.13751C12.5768 2.05063 12.4529 2.00172 12.3239 2.00004C12.1949 1.99837 12.0698 2.04404 11.9722 2.12842C11.5491 2.48978 11.1625 2.89167 10.8177 3.32835C10.0359 4.33739 9.71776 5.25552 9.8723 6.07365C10.0268 6.89178 10.6723 7.57356 11.7722 8.01899V9.27346H5.22711C4.50458 9.27586 3.81232 9.56395 3.3014 10.0749C2.79049 10.5858 2.5024 11.278 2.5 12.0006V13.2096C2.50226 13.7052 2.60218 14.1956 2.79403 14.6526C2.98588 15.1096 3.26591 15.5243 3.61812 15.8731L3.77265 16.0094V20.7273C3.77265 21.0649 3.90674 21.3886 4.14541 21.6272C4.38407 21.8659 4.70778 22 5.04531 22H19.5899C19.9274 22 20.2512 21.8659 20.4898 21.6272C20.7285 21.3886 20.8626 21.0649 20.8626 20.7273V16.0094L21.0171 15.8731C21.3693 15.5243 21.6493 15.1096 21.8412 14.6526C22.033 14.1956 22.133 13.7052 22.1352 13.2096V12.0006C22.1328 11.278 21.8447 10.5858 21.3338 10.0749C20.8229 9.56395 20.1306 9.27586 19.4081 9.27346ZM10.945 5.87366C10.7813 5.02826 11.6904 3.91014 12.3085 3.29199C12.5286 3.52213 12.735 3.76495 12.9267 4.01922C13.3085 4.52828 13.7357 5.26461 13.6175 5.89184C13.5266 6.36454 13.0903 6.75543 12.3176 7.05541C11.4995 6.75543 11.0359 6.35545 10.945 5.87366ZM19.7717 20.7273C19.7717 20.7756 19.7526 20.8218 19.7185 20.8559C19.6844 20.89 19.6381 20.9092 19.5899 20.9092H5.04531C4.99709 20.9092 4.95085 20.89 4.91675 20.8559C4.88265 20.8218 4.8635 20.7756 4.8635 20.7273V16.673C5.29246 16.8381 5.74935 16.9183 6.20888 16.9094C6.81529 16.8924 7.40812 16.7259 7.93464 16.4246C8.46117 16.1232 8.90507 15.6965 9.22688 15.1822C9.55134 15.7105 10.0058 16.1468 10.5469 16.4495C11.088 16.7522 11.6976 16.9111 12.3176 16.9111C12.9376 16.9111 13.5472 16.7522 14.0883 16.4495C14.6294 16.1468 15.0839 15.7105 15.4083 15.1822C15.7302 15.6965 16.1741 16.1232 16.7006 16.4246C17.2271 16.7259 17.8199 16.8924 18.4263 16.9094H18.4991C18.9342 16.9092 19.3656 16.8291 19.7717 16.673V20.7273ZM21.0444 13.2096C21.0428 13.5598 20.9721 13.9063 20.8364 14.2292C20.7006 14.5521 20.5026 14.8451 20.2535 15.0913C20.0165 15.3256 19.7354 15.5105 19.4265 15.6353C19.1175 15.7602 18.7868 15.8224 18.4536 15.8185C17.788 15.802 17.1549 15.5272 16.6883 15.0521C16.2217 14.577 15.9583 13.9391 15.9538 13.2732C15.9538 13.1286 15.8963 12.9898 15.794 12.8876C15.6917 12.7853 15.553 12.7278 15.4083 12.7278C15.2637 12.7278 15.125 12.7853 15.0227 12.8876C14.9204 12.9898 14.8629 13.1286 14.8629 13.2732C14.8629 13.9483 14.5948 14.5957 14.1174 15.073C13.6401 15.5504 12.9927 15.8185 12.3176 15.8185C11.6426 15.8185 10.9951 15.5504 10.5178 15.073C10.0405 14.5957 9.77231 13.9483 9.77231 13.2732C9.77231 13.1286 9.71484 12.9898 9.61256 12.8876C9.51027 12.7853 9.37154 12.7278 9.22688 12.7278C9.08223 12.7278 8.9435 12.7853 8.84121 12.8876C8.73892 12.9898 8.68146 13.1286 8.68146 13.2732C8.67694 13.9391 8.41352 14.577 7.94695 15.0521C7.48037 15.5272 6.84726 15.802 6.1816 15.8185C5.8484 15.8224 5.51772 15.7602 5.20876 15.6353C4.89979 15.5105 4.61868 15.3256 4.38171 15.0913C4.13264 14.8451 3.93458 14.5521 3.79887 14.2292C3.66316 13.9063 3.59247 13.5598 3.59085 13.2096V12.0006C3.59323 11.5673 3.76639 11.1525 4.07274 10.8462C4.37908 10.5399 4.79389 10.3667 5.22711 10.3643H19.4081C19.8413 10.3667 20.2561 10.5399 20.5625 10.8462C20.8688 11.1525 21.042 11.5673 21.0444 12.0006V13.2096Z" fill="#808291"/>
</svg>
