<svg width="40" height="41" viewBox="0 0 40 41" fill="none" xmlns="http://www.w3.org/2000/svg">
<path d="M23.3333 18.3875C23.3333 18.3875 33.4233 16.6375 33.3333 10.8875C33.2699 7.0142 29.1916 5.57087 28.3066 8.38753C28.3066 8.38753 27.4699 5.0542 24.9566 5.0542C22.4433 5.0542 19.9833 10.0542 23.3333 18.3875Z" stroke="black" stroke-width="2" stroke-linecap="round" stroke-linejoin="round"/>
<path d="M23.3 18.3875C23.3 18.3875 33.425 16.6375 33.3333 10.8875C33.27 7.0142 29.1783 5.57087 28.2917 8.38753C28.2917 8.38753 27.45 5.0542 24.93 5.0542C22.4083 5.0542 19.94 10.0542 23.3017 18.3875H23.3ZM21.6667 23.3542L21.77 23.8692L21.905 24.4525L22.03 24.9359L22.1833 25.4825L22.3667 26.0792L22.4683 26.3925L22.7 27.0459C23.7667 29.9292 25.7683 33.4409 29.1667 33.3875C33.04 33.3242 34.4833 29.2325 31.6667 28.3459L31.9133 28.2709L32.1883 28.1742C32.2431 28.1532 32.2975 28.1316 32.3517 28.1092L32.7217 27.9459C33.6983 27.4792 35 26.5592 35 24.9842C35 22.4625 30 19.9942 21.6667 23.3559V23.3542ZM16.7 21.7209L16.185 21.8242L15.6017 21.9592L15.1183 22.0842L14.5717 22.2375L13.975 22.4209L13.6617 22.5225L13.0083 22.7542C10.125 23.8209 6.61333 25.8209 6.66667 29.2209C6.73 33.0942 10.8217 34.5375 11.7083 31.7209L11.7833 31.9675L11.88 32.2425L11.945 32.4059L12.1083 32.7759C12.575 33.7525 13.495 35.0542 15.07 35.0542C17.5917 35.0542 20.06 30.0542 16.6983 21.7209H16.7ZM18.3333 16.7542L18.23 16.2392L18.095 15.6559L17.97 15.1725L17.8167 14.6259L17.6333 14.0292L17.42 13.3925L17.1733 12.7275C16.0767 9.91587 14.1 6.67087 10.8333 6.72087C6.96 6.7842 5.51667 10.8759 8.33333 11.7625L8.08667 11.8375L7.81333 11.9342C7.7575 11.9551 7.70194 11.9768 7.64667 11.9992L7.28 12.1625C6.3 12.6292 5 13.5492 5 15.1242C5 17.6459 10 20.1142 18.3333 16.7525V16.7542Z" stroke="#808291" stroke-width="2.5" stroke-linecap="round" stroke-linejoin="round"/>
</svg>
