<svg width="25" height="24" viewBox="0 0 25 24" fill="none" xmlns="http://www.w3.org/2000/svg">
<path d="M18.5 13V11H22.5V13H18.5ZM19.7 20L16.5 17.6L17.7 16L20.9 18.4L19.7 20ZM17.7 8L16.5 6.4L19.7 4L20.9 5.6L17.7 8ZM5.5 19V15H4.5C3.95 15 3.47933 14.804 3.088 14.412C2.696 14.0207 2.5 13.55 2.5 13V11C2.5 10.45 2.696 9.979 3.088 9.587C3.47933 9.19567 3.95 9 4.5 9H8.5L13.5 6V18L8.5 15H7.5V19H5.5ZM14.5 15.35V8.65C14.95 9.05 15.3127 9.53767 15.588 10.113C15.8627 10.6877 16 11.3167 16 12C16 12.6833 15.8627 13.3123 15.588 13.887C15.3127 14.4623 14.95 14.95 14.5 15.35ZM4.5 11V13H9.05L11.5 14.45V9.55L9.05 11H4.5Z" fill="#808291"/>
</svg>
