<svg width="25" height="24" viewBox="0 0 25 24" fill="none" xmlns="http://www.w3.org/2000/svg">
<path d="M6.5 2H15.5C16.0304 2 16.5391 2.21071 16.9142 2.58579C17.2893 2.96086 17.5 3.46957 17.5 4V6H15.5V4H6.5V20H15.5V18H17.5V20C17.5 20.5304 17.2893 21.0391 16.9142 21.4142C16.5391 21.7893 16.0304 22 15.5 22H6.5C5.96957 22 5.46086 21.7893 5.08579 21.4142C4.71071 21.0391 4.5 20.5304 4.5 20V4C4.5 3.46957 4.71071 2.96086 5.08579 2.58579C5.46086 2.21071 5.96957 2 6.5 2Z" fill="#808291"/>
<path d="M16.59 15.59L18 17L23 12L18 7L16.59 8.41L19.17 11H9.5V13H19.17L16.59 15.59Z" fill="#808291"/>
</svg>
