<svg width="24" height="24" viewBox="0 0 24 24" fill="none" xmlns="http://www.w3.org/2000/svg">
<path fill-rule="evenodd" clip-rule="evenodd" d="M7.84699 2.41842C8.1149 2.15051 8.47826 2 8.85714 2H14.5714C14.9503 2 15.3137 2.15051 15.5816 2.41842C15.8495 2.68633 16 3.04969 16 3.42857V9.14286H21C21.3789 9.14286 21.7422 9.29337 22.0102 9.56128C22.2781 9.82919 22.4286 10.1925 22.4286 10.5714V20.9286C22.4286 21.2127 22.3157 21.4853 22.1148 21.6862C21.9138 21.8871 21.6413 22 21.3571 22H2.07143C1.78727 22 1.51475 21.8871 1.31381 21.6862C1.11288 21.4853 1 21.2127 1 20.9286V7.71429C1 7.3354 1.15051 6.97204 1.41842 6.70413C1.68633 6.43622 2.04969 6.28571 2.42857 6.28571H7.42857V3.42857C7.42857 3.04969 7.57908 2.68633 7.84699 2.41842ZM8.85714 20.5714H14.5714V3.42857H8.85714V20.5714ZM16 20.5714H21V10.5714H16V20.5714ZM7.42857 20.5714V7.71429H2.42857V20.5714H7.42857Z" fill="white"/>
</svg>
