<svg width="25" height="25" viewBox="0 0 25 25" fill="none" xmlns="http://www.w3.org/2000/svg">
<path fill-rule="evenodd" clip-rule="evenodd" d="M8.34699 2.54342C8.6149 2.27551 8.97826 2.125 9.35714 2.125H15.0714C15.4503 2.125 15.8137 2.27551 16.0816 2.54342C16.3495 2.81133 16.5 3.17469 16.5 3.55357V9.26786H21.5C21.8789 9.26786 22.2422 9.41837 22.5102 9.68628C22.7781 9.95419 22.9286 10.3175 22.9286 10.6964V21.0536C22.9286 21.3377 22.8157 21.6103 22.6148 21.8112C22.4138 22.0121 22.1413 22.125 21.8571 22.125H2.57143C2.28727 22.125 2.01475 22.0121 1.81381 21.8112C1.61288 21.6103 1.5 21.3377 1.5 21.0536V7.83929C1.5 7.4604 1.65051 7.09704 1.91842 6.82913C2.18633 6.56122 2.54969 6.41071 2.92857 6.41071H7.92857V3.55357C7.92857 3.17469 8.07908 2.81133 8.34699 2.54342ZM9.35714 20.6964H15.0714V3.55357H9.35714V20.6964ZM16.5 20.6964H21.5V10.6964H16.5V20.6964ZM7.92857 20.6964V7.83929H2.92857V20.6964H7.92857Z" fill="#AC224D"/>
</svg>
