<svg width="25" height="25" viewBox="0 0 25 25" fill="none" xmlns="http://www.w3.org/2000/svg">
<path d="M17.1341 2.125C14.4415 2.125 12.2561 4.31037 12.2561 7.00305C12.2561 9.69573 14.4415 11.8811 17.1341 11.8811C19.8268 11.8811 22.0122 9.69573 22.0122 7.00305C22.0122 4.31037 19.8268 2.125 17.1341 2.125ZM17.1341 9.92988C15.5146 9.92988 14.2073 8.62256 14.2073 7.00305C14.2073 5.38354 15.5146 4.07622 17.1341 4.07622C18.7537 4.07622 20.061 5.38354 20.061 7.00305C20.061 8.62256 18.7537 9.92988 17.1341 9.92988ZM20.061 15.7835H18.1098C18.1098 14.6128 17.378 13.5591 16.2854 13.1494L10.2756 10.9055H2.5V21.6372H8.35366V20.2323L15.1829 22.125L22.9878 19.686V18.7104C22.9878 17.0909 21.6805 15.7835 20.061 15.7835ZM6.40244 19.686H4.45122V12.8567H6.40244V19.686ZM15.1537 20.086L8.35366 18.2226V12.8567H9.92439L15.6024 14.9738C15.9341 15.1006 16.1585 15.4226 16.1585 15.7835C16.1585 15.7835 14.2073 15.7348 13.9146 15.6372L11.5927 14.8665L10.978 16.7201L13.3 17.4909C13.7976 17.6567 14.3146 17.7348 14.8415 17.7348H20.061C20.4415 17.7348 20.7829 17.9689 20.939 18.2909L15.1537 20.086Z" fill="#AC224D"/>
</svg>
