<svg width="25" height="24" viewBox="0 0 25 24" fill="none" xmlns="http://www.w3.org/2000/svg">
<path d="M17.1341 2C14.4415 2 12.2561 4.18537 12.2561 6.87805C12.2561 9.57073 14.4415 11.7561 17.1341 11.7561C19.8268 11.7561 22.0122 9.57073 22.0122 6.87805C22.0122 4.18537 19.8268 2 17.1341 2ZM17.1341 9.80488C15.5146 9.80488 14.2073 8.49756 14.2073 6.87805C14.2073 5.25854 15.5146 3.95122 17.1341 3.95122C18.7537 3.95122 20.061 5.25854 20.061 6.87805C20.061 8.49756 18.7537 9.80488 17.1341 9.80488ZM20.061 15.6585H18.1098C18.1098 14.4878 17.378 13.4341 16.2854 13.0244L10.2756 10.7805H2.5V21.5122H8.35366V20.1073L15.1829 22L22.9878 19.561V18.5854C22.9878 16.9659 21.6805 15.6585 20.061 15.6585ZM6.40244 19.561H4.45122V12.7317H6.40244V19.561ZM15.1537 19.961L8.35366 18.0976V12.7317H9.92439L15.6024 14.8488C15.9341 14.9756 16.1585 15.2976 16.1585 15.6585C16.1585 15.6585 14.2073 15.6098 13.9146 15.5122L11.5927 14.7415L10.978 16.5951L13.3 17.3659C13.7976 17.5317 14.3146 17.6098 14.8415 17.6098H20.061C20.4415 17.6098 20.7829 17.8439 20.939 18.1659L15.1537 19.961Z" fill="#808291"/>
</svg>
