<svg width="40" height="40" viewBox="0 0 40 40" fill="none" xmlns="http://www.w3.org/2000/svg">
<path fill-rule="evenodd" clip-rule="evenodd" d="M23.3334 11.6667C22.8914 11.6667 22.4675 11.8423 22.1549 12.1549C21.8423 12.4675 21.6667 12.8914 21.6667 13.3334V26.6667C21.6667 27.1088 21.8423 27.5327 22.1549 27.8453C22.4675 28.1578 22.8914 28.3334 23.3334 28.3334H30.0001C30.4421 28.3334 30.866 28.1578 31.1786 27.8453C31.4912 27.5327 31.6667 27.1088 31.6667 26.6667V13.3334C31.6667 12.8914 31.4912 12.4675 31.1786 12.1549C30.866 11.8423 30.4421 11.6667 30.0001 11.6667H23.3334ZM28.3334 15.0001H25.0001V25.0001H28.3334V15.0001Z" fill="#808291"/>
<path d="M10.0002 11.6667C9.55814 11.6667 9.13421 11.8423 8.82165 12.1549C8.50909 12.4675 8.3335 12.8914 8.3335 13.3334C8.3335 13.7754 8.50909 14.1994 8.82165 14.5119C9.13421 14.8245 9.55814 15.0001 10.0002 15.0001H16.6668C17.1089 15.0001 17.5328 14.8245 17.8453 14.5119C18.1579 14.1994 18.3335 13.7754 18.3335 13.3334C18.3335 12.8914 18.1579 12.4675 17.8453 12.1549C17.5328 11.8423 17.1089 11.6667 16.6668 11.6667H10.0002ZM10.0002 18.3334C9.55814 18.3334 9.13421 18.509 8.82165 18.8216C8.50909 19.1341 8.3335 19.5581 8.3335 20.0001C8.3335 20.4421 8.50909 20.866 8.82165 21.1786C9.13421 21.4912 9.55814 21.6667 10.0002 21.6667H16.6668C17.1089 21.6667 17.5328 21.4912 17.8453 21.1786C18.1579 20.866 18.3335 20.4421 18.3335 20.0001C18.3335 19.5581 18.1579 19.1341 17.8453 18.8216C17.5328 18.509 17.1089 18.3334 16.6668 18.3334H10.0002ZM8.3335 26.6667C8.3335 26.2247 8.50909 25.8008 8.82165 25.4882C9.13421 25.1757 9.55814 25.0001 10.0002 25.0001H16.6668C17.1089 25.0001 17.5328 25.1757 17.8453 25.4882C18.1579 25.8008 18.3335 26.2247 18.3335 26.6667C18.3335 27.1088 18.1579 27.5327 17.8453 27.8453C17.5328 28.1578 17.1089 28.3334 16.6668 28.3334H10.0002C9.55814 28.3334 9.13421 28.1578 8.82165 27.8453C8.50909 27.5327 8.3335 27.1088 8.3335 26.6667Z" fill="#808291"/>
<path fill-rule="evenodd" clip-rule="evenodd" d="M6.66675 5C5.34067 5 4.0689 5.52678 3.13121 6.46447C2.19353 7.40215 1.66675 8.67392 1.66675 10V30C1.66675 31.3261 2.19353 32.5979 3.13121 33.5355C4.0689 34.4732 5.34067 35 6.66675 35H33.3334C34.6595 35 35.9313 34.4732 36.869 33.5355C37.8066 32.5979 38.3334 31.3261 38.3334 30V10C38.3334 8.67392 37.8066 7.40215 36.869 6.46447C35.9313 5.52678 34.6595 5 33.3334 5H6.66675ZM33.3334 8.33333H6.66675C6.22472 8.33333 5.8008 8.50893 5.48824 8.82149C5.17568 9.13405 5.00008 9.55797 5.00008 10V30C5.00008 30.442 5.17568 30.866 5.48824 31.1785C5.8008 31.4911 6.22472 31.6667 6.66675 31.6667H33.3334C33.7754 31.6667 34.1994 31.4911 34.5119 31.1785C34.8245 30.866 35.0001 30.442 35.0001 30V10C35.0001 9.55797 34.8245 9.13405 34.5119 8.82149C34.1994 8.50893 33.7754 8.33333 33.3334 8.33333Z" fill="#808291"/>
</svg>
