<svg width="25" height="24" viewBox="0 0 25 24" fill="none" xmlns="http://www.w3.org/2000/svg">
<path fill-rule="evenodd" clip-rule="evenodd" d="M8.34699 2.41842C8.6149 2.15051 8.97826 2 9.35714 2H15.0714C15.4503 2 15.8137 2.15051 16.0816 2.41842C16.3495 2.68633 16.5 3.04969 16.5 3.42857V9.14286H21.5C21.8789 9.14286 22.2422 9.29337 22.5102 9.56128C22.7781 9.82919 22.9286 10.1925 22.9286 10.5714V20.9286C22.9286 21.2127 22.8157 21.4853 22.6148 21.6862C22.4138 21.8871 22.1413 22 21.8571 22H2.57143C2.28727 22 2.01475 21.8871 1.81381 21.6862C1.61288 21.4853 1.5 21.2127 1.5 20.9286V7.71429C1.5 7.3354 1.65051 6.97204 1.91842 6.70413C2.18633 6.43622 2.54969 6.28571 2.92857 6.28571H7.92857V3.42857C7.92857 3.04969 8.07908 2.68633 8.34699 2.41842ZM9.35714 20.5714H15.0714V3.42857H9.35714V20.5714ZM16.5 20.5714H21.5V10.5714H16.5V20.5714ZM7.92857 20.5714V7.71429H2.92857V20.5714H7.92857Z" fill="#808291"/>
</svg>
